<svg width="108" height="108" viewBox="0 0 108 108" fill="none" xmlns="http://www.w3.org/2000/svg">
<path d="M50 0.0390625C50.2544 0.012996 50.5132 0 50.7744 0C53.4535 0.000234718 55.8026 1.40626 57.1289 3.51953C58.7144 10.1523 64.6803 15.084 71.7988 15.084H98.3467V15.0908C103.605 15.2475 107.835 19.4793 107.992 24.7373H108V72C108 91.8822 91.8822 108 72 108H36C16.1178 108 5.79869e-07 91.8822 0 72V36C0 16.1178 16.1178 5.79834e-07 36 0H50V0.0390625Z" fill="#C4C4C4"/>
<line x1="53.9612" y1="30.0001" x2="53.9612" y2="78.1907" stroke="black"/>
<line x1="30" y1="53.5953" x2="77.5565" y2="53.5953" stroke="black"/>
</svg>
