<svg width="420" height="174" viewBox="0 0 420 174" fill="none" xmlns="http://www.w3.org/2000/svg">
<path fill-rule="evenodd" clip-rule="evenodd" d="M420 1.02226C419.47 0.352074 419.188 -3.7927e-05 419.188 -3.7927e-05H1.17953C1.17953 -3.7927e-05 0.763672 0.139046 0 0.415047V126.364C0.390961 126.59 0.784119 126.816 1.17953 127.043C67.7477 165.228 125.399 145.624 186.678 124.787C254.187 101.831 326.099 77.3773 419.188 127.043C419.459 127.188 419.73 127.332 420 127.476V1.02226Z" fill="#BAD9CE"/>
<path fill-rule="evenodd" clip-rule="evenodd" d="M420 26.401C419.395 25.6358 419.072 25.2323 419.072 25.2323H1.06375C1.06375 25.2323 0.68985 25.3573 0 25.6056V151.663C0.352783 151.867 0.707367 152.071 1.06375 152.276C67.632 190.46 125.283 170.856 186.562 150.019C254.071 127.063 325.983 102.61 419.072 152.276C419.382 152.441 419.692 152.606 420 152.769V26.401Z" fill="#BAD9CE" fill-opacity="0.68"/>
</svg>
